<?xml version="1.0" encoding="UTF-8" standalone="no"?>
<!-- Created with Inkscape (http://www.inkscape.org/) -->

<svg
   xmlns:dc="http://purl.org/dc/elements/1.1/"
   xmlns:cc="http://creativecommons.org/ns#"
   xmlns:rdf="http://www.w3.org/1999/02/22-rdf-syntax-ns#"
   xmlns:svg="http://www.w3.org/2000/svg"
   xmlns="http://www.w3.org/2000/svg"
   xmlns:sodipodi="http://sodipodi.sourceforge.net/DTD/sodipodi-0.dtd"
   xmlns:inkscape="http://www.inkscape.org/namespaces/inkscape"
   width="400mm"
   height="400mm"
   viewBox="0 0 400 400"
   version="1.1"
   id="svg8"
   inkscape:version="0.92.1 r15371"
   sodipodi:docname="notehunters.svg">
  <defs
     id="defs2" />
  <sodipodi:namedview
     id="base"
     pagecolor="#ffffff"
     bordercolor="#666666"
     borderopacity="1.0"
     inkscape:pageopacity="0.0"
     inkscape:pageshadow="2"
     inkscape:zoom="0.35"
     inkscape:cx="678.33129"
     inkscape:cy="439.83697"
     inkscape:document-units="mm"
     inkscape:current-layer="layer1"
     showgrid="false"
     inkscape:window-width="1920"
     inkscape:window-height="1053"
     inkscape:window-x="0"
     inkscape:window-y="27"
     inkscape:window-maximized="1" />
  <metadata
     id="metadata5">
    <rdf:RDF>
      <cc:Work
         rdf:about="">
        <dc:format>image/svg+xml</dc:format>
        <dc:type
           rdf:resource="http://purl.org/dc/dcmitype/StillImage" />
        <dc:title></dc:title>
      </cc:Work>
    </rdf:RDF>
  </metadata>
  <g
     inkscape:label="Layer 1"
     inkscape:groupmode="layer"
     id="layer1"
     transform="translate(0,103)">
    <text
       xml:space="preserve"
       style="font-style:normal;font-weight:normal;font-size:49.38888889px;line-height:1.25;font-family:sans-serif;letter-spacing:0px;word-spacing:0px;fill:#000000;fill-opacity:1;stroke:none;stroke-width:0.26458332;"
       x="48.380955"
       y="-87.023804"
       id="text4634"><tspan
         sodipodi:role="line"
         id="tspan4632"
         x="48.380955"
         y="-65.175011"
         style="stroke-width:0.26458332;font-size:49.38888889px;"></tspan></text>
    <g
       id="g4798"
       transform="translate(0,-22.154612)">
      <g
         transform="translate(-1.9311336,32.263006)"
         id="g4687">
        <g
           id="g4546"
           transform="matrix(0.35270499,0,0,0.35270499,11.30619,4.7166792)">
          <g
             id="g4489">
            <circle
               id="circle4485"
               r="46.578999"
               cy="46.578999"
               cx="146.66299" />
            <path
               sodipodi:nodetypes="ccccccccccscsccccccccsccccsccccsccccsccccccc"
               id="path4487"
               d="m 503.028,159.072 c -11.159,-4.705 -23.103,-10.911 -32.741,-17.671 -4.332,-3.022 -6.082,-1.808 -4.256,3.136 l 3.204,8.721 -37.361,0.22 C 424.635,17.356 301.078,4.581 299.796,4.466 c -7.841,-0.688 -14.869,5.097 -15.577,12.996 -0.708,7.879 5.106,14.869 12.995,15.577 4.188,0.373 99.221,10.279 105.924,120.602 l -77.36,0.459 c -3.634,-11.685 -14.401,-20.225 -27.272,-20.225 H 198.999 C 194.61,123.643 184.455,116.471 172.626,116.471 H 122.432 L 58.124,84.331 C 43.943,77.255 26.711,82.983 19.635,97.164 c -7.085,14.181 -1.348,31.394 12.823,38.489 l 59.565,29.768 V 278.583 L 34.82,487 c -4.198,15.279 4.791,31.059 20.071,35.266 2.544,0.688 5.097,1.023 7.612,1.023 12.594,0 24.146,-8.367 27.646,-21.105 L 141.93,313.526 h 8.941 l 47.975,188.152 c 3.309,12.977 14.975,21.611 27.779,21.611 2.343,0 4.733,-0.277 7.104,-0.898 15.348,-3.902 24.624,-19.537 20.712,-34.885 L 201.312,279.119 V 191.26 h 97.193 c 12.068,0 22.348,-7.459 26.594,-18.025 16.792,-0.096 48.146,-0.277 78.077,-0.459 -3.949,96.936 -90.968,125.881 -94.726,127.066 -7.564,2.334 -11.791,10.385 -9.448,17.949 1.913,6.148 7.574,10.088 13.694,10.088 1.405,0 2.84,-0.201 4.255,-0.631 1.138,-0.344 111.164,-35.984 115.085,-154.635 15.778,-0.096 29.271,-0.172 37.312,-0.22 l -3.117,8.74 c -1.77,4.982 0.01,6.168 4.303,3.079 9.562,-6.856 21.43,-13.187 32.532,-18.044 4.849,-2.114 4.83,-5.04 -0.038,-7.096 z"
               inkscape:connector-curvature="0" />
          </g>
          <g
             id="g4491" />
          <g
             id="g4493" />
          <g
             id="g4495" />
          <g
             id="g4497" />
          <g
             id="g4499" />
          <g
             id="g4501" />
          <g
             id="g4503" />
          <g
             id="g4505" />
          <g
             id="g4507" />
          <g
             id="g4509" />
          <g
             id="g4511" />
          <g
             id="g4513" />
          <g
             id="g4515" />
          <g
             id="g4517" />
          <g
             id="g4519" />
        </g>
        <g
           id="g4630"
           transform="matrix(3.7975036,0,0,3.7975036,179.73758,-16.925108)">
          <g
             id="g4566">
            <path
               id="path4548"
               d="m 15.5,17 h 13 c 0.553,0 1,-0.447 1,-1 0,-0.553 -0.447,-1 -1,-1 h -13 c -0.553,0 -1,0.447 -1,1 0,0.553 0.447,1 1,1 z"
               inkscape:connector-curvature="0" />
            <path
               id="path4550"
               d="m 15.5,48 h 13 c 0.553,0 1,-0.447 1,-1 0,-0.553 -0.447,-1 -1,-1 h -13 c -0.553,0 -1,0.447 -1,1 0,0.553 0.447,1 1,1 z"
               inkscape:connector-curvature="0" />
            <path
               id="path4552"
               d="m 15.5,23 h 29 c 0.553,0 1,-0.447 1,-1 0,-0.553 -0.447,-1 -1,-1 h -29 c -0.553,0 -1,0.447 -1,1 0,0.553 0.447,1 1,1 z"
               inkscape:connector-curvature="0" />
            <path
               id="path4554"
               d="m 15.5,35 h 29 c 0.553,0 1,-0.447 1,-1 0,-0.553 -0.447,-1 -1,-1 h -29 c -0.553,0 -1,0.447 -1,1 0,0.553 0.447,1 1,1 z"
               inkscape:connector-curvature="0" />
            <path
               id="path4556"
               d="m 15.5,42 h 29 c 0.553,0 1,-0.447 1,-1 0,-0.553 -0.447,-1 -1,-1 h -29 c -0.553,0 -1,0.447 -1,1 0,0.553 0.447,1 1,1 z"
               inkscape:connector-curvature="0" />
            <path
               id="path4558"
               d="m 15.5,29 h 14 c 0.553,0 1,-0.447 1,-1 0,-0.553 -0.447,-1 -1,-1 h -14 c -0.553,0 -1,0.447 -1,1 0,0.553 0.447,1 1,1 z"
               inkscape:connector-curvature="0" />
            <path
               id="path4560"
               d="m 44.5,27 h -7 c -0.553,0 -1,0.447 -1,1 0,0.553 0.447,1 1,1 h 7 c 0.553,0 1,-0.447 1,-1 0,-0.553 -0.447,-1 -1,-1 z"
               inkscape:connector-curvature="0" />
            <path
               id="path4562"
               d="M 32.79,27.29 C 32.6,27.479 32.5,27.729 32.5,28 c 0,0.26 0.109,0.52 0.29,0.71 0.189,0.189 0.439,0.29 0.71,0.29 0.27,0 0.52,-0.11 0.71,-0.29 0.18,-0.19 0.29,-0.44 0.29,-0.71 0,-0.271 -0.101,-0.521 -0.29,-0.71 -0.38,-0.37 -1.04,-0.38 -1.42,0 z"
               inkscape:connector-curvature="0" />
            <path
               id="path4564"
               d="m 41.5,2 h -6 V 1 c 0,-0.553 -0.447,-1 -1,-1 h -9 c -0.553,0 -1,0.447 -1,1 v 1 h -6 -13 v 58 h 49 V 2 Z m -8,0 v 1 2 h -7 V 3 2 Z m -9,2 v 2 1 h 1 9 1 V 6 4 h 5 v 1 3 h -21 V 5 4 Z m -7,5 v 1 h 1 23 1 V 9 7 h 7 v 48 h -39 V 7 h 7 z m 35,49 H 7.5 V 4 h 10 v 1 h -9 v 52 h 43 V 5 h -9 V 4 h 10 z"
               inkscape:connector-curvature="0" />
          </g>
          <g
             id="g4568" />
          <g
             id="g4570" />
          <g
             id="g4572" />
          <g
             id="g4574" />
          <g
             id="g4576" />
          <g
             id="g4578" />
          <g
             id="g4580" />
          <g
             id="g4582" />
          <g
             id="g4584" />
          <g
             id="g4586" />
          <g
             id="g4588" />
          <g
             id="g4590" />
          <g
             id="g4592" />
          <g
             id="g4594" />
          <g
             id="g4596" />
        </g>
        <text
           xml:space="preserve"
           style="font-style:normal;font-weight:normal;font-size:49.38888931px;line-height:1.25;font-family:sans-serif;letter-spacing:0px;word-spacing:0px;fill:#000000;fill-opacity:1;stroke:none;stroke-width:0.26458332"
           x="34.614738"
           y="-45.446426"
           id="text4638"><tspan
             sodipodi:role="line"
             id="tspan4636"
             x="34.614738"
             y="-45.446426"
             style="stroke-width:0.26458332">Note Hunters</tspan></text>
      </g>
      <text
         id="text4738"
         y="287.17264"
         x="27.931259"
         style="font-style:normal;font-weight:normal;font-size:49.38888931px;line-height:1.25;font-family:sans-serif;letter-spacing:0px;word-spacing:0px;fill:#000000;fill-opacity:1;stroke:none;stroke-width:0.26458332"
         xml:space="preserve"><tspan
           id="tspan4744"
           style="font-size:22.93055534px;stroke-width:0.26458332"
           y="287.17264"
           x="27.931259"
           sodipodi:role="line">collaborative PDF annotations</tspan></text>
    </g>
  </g>
</svg>
